<svg width="40" height="40" viewBox="0 0 40 40" fill="none" xmlns="http://www.w3.org/2000/svg">
<path d="M4.59097 28.7812C4.23225 29.3661 3.82937 30.045 3.4872 30.5858C3.33998 30.8346 3.29624 31.1312 3.36538 31.4119C3.43452 31.6926 3.61103 31.935 3.85697 32.0869L11.0314 36.502C11.1561 36.579 11.2949 36.6303 11.4396 36.6531C11.5843 36.6759 11.7322 36.6697 11.8744 36.6347C12.0167 36.5998 12.1507 36.5369 12.2684 36.4497C12.3861 36.3624 12.4853 36.2527 12.5601 36.1267C12.8471 35.6466 13.2169 35.0229 13.6198 34.3552C16.462 29.6642 19.3207 30.2381 24.4753 32.6995L31.589 36.0826C31.7224 36.146 31.8671 36.1821 32.0147 36.1886C32.1622 36.1951 32.3096 36.172 32.448 36.1205C32.5865 36.069 32.7131 35.9903 32.8206 35.889C32.9281 35.7877 33.0141 35.6658 33.0736 35.5307L36.4898 27.8043C36.6058 27.5391 36.6129 27.2389 36.5097 26.9684C36.4065 26.698 36.2011 26.4789 35.9379 26.3584C34.4368 25.652 31.4511 24.2447 28.7634 22.9478C19.0944 18.2512 10.8769 18.5548 4.59097 28.7812V28.7812Z" fill="url(#paint0_linear_204_572)"/>
<path d="M36.7602 11.2424C37.1189 10.6574 37.5218 9.97856 37.864 9.43772C38.0112 9.18893 38.0549 8.89231 37.9858 8.61161C37.9166 8.33091 37.7401 8.08854 37.4942 7.9366L30.3197 3.52154C30.1941 3.43694 30.0525 3.3791 29.9035 3.3516C29.7546 3.3241 29.6016 3.32754 29.4541 3.36171C29.3066 3.39587 29.1676 3.46003 29.046 3.55019C28.9243 3.64035 28.8225 3.75458 28.7469 3.88578C28.4599 4.36592 28.0901 4.98955 27.6872 5.65732C24.8451 10.3483 21.9863 9.77436 16.8317 7.31297L9.74004 3.94649C9.60668 3.88302 9.46195 3.84695 9.3144 3.84043C9.16685 3.83391 9.0195 3.85707 8.88106 3.90853C8.74263 3.95999 8.61593 4.03871 8.50847 4.14003C8.40102 4.24135 8.31498 4.3632 8.25547 4.49837L4.83932 12.2247C4.72332 12.49 4.71616 12.7902 4.81939 13.0606C4.92262 13.3311 5.12797 13.5502 5.39121 13.6707C6.89233 14.3771 9.87801 15.7844 12.5657 17.0813C22.2567 21.7723 30.4743 21.4577 36.7602 11.2424V11.2424Z" fill="url(#paint1_linear_204_572)"/>
<defs>
<linearGradient id="paint0_linear_204_572" x1="36.2966" y1="38.7813" x2="14.5911" y2="26.3087" gradientUnits="userSpaceOnUse">
<stop offset="0.18" stop-color="#0052CC"/>
<stop offset="1" stop-color="#2684FF"/>
</linearGradient>
<linearGradient id="paint1_linear_204_572" x1="-9149.83" y1="26039.2" x2="-8398.34" y2="26901.6" gradientUnits="userSpaceOnUse">
<stop offset="0.18" stop-color="#0052CC"/>
<stop offset="1" stop-color="#2684FF"/>
</linearGradient>
</defs>
</svg>
