<svg width="40" height="40" viewBox="0 0 40 40" fill="none" xmlns="http://www.w3.org/2000/svg">
<path fill-rule="evenodd" clip-rule="evenodd" d="M20 3.33325C10.7917 3.33325 3.33333 10.9802 3.33333 20.4215C3.33333 27.983 8.10417 34.3698 14.7292 36.6339C15.5625 36.7835 15.875 36.2708 15.875 35.8223C15.875 35.4164 15.8542 34.0707 15.8542 32.6396C11.6667 33.4299 10.5833 31.5929 10.25 30.6317C10.0625 30.1404 9.25 28.6238 8.54167 28.218C7.95833 27.8976 7.125 27.1073 8.52083 27.0859C9.83333 27.0645 10.7708 28.3248 11.0833 28.8374C12.5833 31.422 14.9792 30.6958 15.9375 30.2472C16.0833 29.1365 16.5208 28.3889 17 27.9617C13.2917 27.5345 9.41667 26.0606 9.41667 19.5244C9.41667 17.666 10.0625 16.1281 11.125 14.9319C10.9583 14.5047 10.375 12.7531 11.2917 10.4035C11.2917 10.4035 12.6875 9.95494 15.875 12.1551C17.2083 11.7706 18.625 11.5783 20.0417 11.5783C21.4583 11.5783 22.875 11.7706 24.2083 12.1551C27.3958 9.93358 28.7917 10.4035 28.7917 10.4035C29.7083 12.7531 29.125 14.5047 28.9583 14.9319C30.0208 16.1281 30.6667 17.6446 30.6667 19.5244C30.6667 26.082 26.7708 27.5345 23.0625 27.9617C23.6667 28.4957 24.1875 29.521 24.1875 31.123C24.1875 33.4085 24.1667 35.2455 24.1667 35.8223C24.1667 36.2708 24.4792 36.8048 25.3125 36.6339C31.8958 34.3698 36.6667 27.9617 36.6667 20.4215C36.6667 10.9802 29.2083 3.33325 20 3.33325Z" fill="#1B1F23"/>
</svg>
