<svg width="40" height="40" viewBox="0 0 40 40" fill="none" xmlns="http://www.w3.org/2000/svg">
<path d="M15.5553 3.33337C13.7144 3.33337 12.2222 4.82594 12.2222 6.66659C12.2218 7.10387 12.3076 7.53697 12.4749 7.94114C12.6422 8.34531 12.8875 8.71264 13.197 9.02216C13.5066 9.33167 13.8741 9.57732 14.2787 9.74507C14.6834 9.91282 15.1172 9.99937 15.5553 9.99982H18.889V6.66659C18.8897 5.78341 18.5388 4.93609 17.9137 4.31101C17.2885 3.68592 16.4402 3.33426 15.5553 3.33337ZM15.5553 12.222H6.66645C4.8255 12.222 3.33334 13.7145 3.33334 15.5557C3.33334 17.3964 4.8255 18.889 6.66645 18.889H15.5559C17.3962 18.889 18.889 17.3964 18.889 15.5557C18.889 13.7145 17.3962 12.222 15.5553 12.222Z" fill="#36C5F0"/>
<path d="M36.6667 15.5557C36.6667 13.7145 35.174 12.222 33.333 12.222C31.492 12.222 29.9998 13.7145 29.9998 15.5557V18.889H33.333C34.218 18.888 35.0663 18.5364 35.6915 17.9114C36.3167 17.2862 36.6673 16.4389 36.6667 15.5557ZM27.7778 15.5557V6.66659C27.7785 5.78341 27.4278 4.93609 26.8027 4.31101C26.1775 3.68592 25.3292 3.33426 24.4442 3.33337C22.6032 3.33337 21.111 4.82594 21.111 6.66659V15.5552C21.111 17.3969 22.6032 18.8895 24.4442 18.8895C25.3292 18.8887 26.1775 18.537 26.8027 17.9119C27.4278 17.2869 27.7785 16.4395 27.7778 15.5563" fill="#2EB67D"/>
<path d="M24.4442 36.6666C25.3292 36.6658 26.1775 36.3141 26.8027 35.689C27.4278 35.064 27.7785 34.2166 27.7778 33.3333C27.7785 32.4501 27.4278 31.6028 26.8027 30.9778C26.1775 30.3526 25.3292 30.001 24.4442 30.0001H21.111V33.3333C21.111 35.174 22.6032 36.6666 24.4442 36.6666ZM24.4442 27.778H33.3335C35.174 27.778 36.6667 26.2855 36.6667 24.4443C36.6673 23.561 36.3167 22.7138 35.6915 22.0886C35.0663 21.4636 34.218 21.112 33.333 21.111H24.4442C22.6032 21.111 21.111 22.6036 21.111 24.4443C21.1107 24.8815 21.1965 25.3146 21.3637 25.7188C21.531 26.123 21.7763 26.4903 22.0858 26.7998C22.3953 27.1093 22.763 27.355 23.1677 27.5226C23.5722 27.6905 24.006 27.777 24.4442 27.7775" fill="#ECB22E"/>
<path d="M3.33333 24.4443C3.3329 24.8815 3.41876 25.3146 3.58603 25.7188C3.7533 26.123 3.99868 26.4903 4.3082 26.7998C4.6177 27.1093 4.98526 27.355 5.3899 27.5226C5.79451 27.6905 6.2283 27.777 6.66645 27.7775C7.55138 27.7766 8.39973 27.425 9.0249 26.7998C9.65006 26.1748 10.0008 25.3275 10.0001 24.4443V21.111H6.66645C4.8255 21.111 3.33333 22.6036 3.33333 24.4443ZM12.2222 24.4443V33.3328C12.2222 35.174 13.7143 36.6666 15.5553 36.6666C16.4402 36.6658 17.2885 36.3141 17.9137 35.689C18.5388 35.064 18.8897 34.2166 18.889 33.3333V24.4443C18.8893 24.007 18.8035 23.5738 18.6362 23.1696C18.4688 22.7653 18.2235 22.398 17.9138 22.0885C17.6043 21.779 17.2367 21.5333 16.832 21.3656C16.4273 21.198 15.9935 21.1113 15.5553 21.111C13.7143 21.111 12.2222 22.6036 12.2222 24.4443Z" fill="#E01E5A"/>
</svg>
